<?xml version="1.0" encoding="iso-8859-1"?>
<!-- Generator: Adobe Illustrator 19.1.0, SVG Export Plug-In . SVG Version: 6.00 Build 0)  -->
<svg version="1.1" id="Capa_1" xmlns="http://www.w3.org/2000/svg" xmlns:xlink="http://www.w3.org/1999/xlink" x="0px" y="0px"
	 viewBox="0 0 36.406 36.406" style="enable-background:new 0 0 36.406 36.406;" xml:space="preserve">
<path style="fill:#1E201D;" d="M27.955,19.015l-8.984,8.539l-8.984,8.539c-0.444,0.429-1.159,0.413-1.571-0.032
	C8.21,35.84,8.099,35.57,8.099,35.285l0,0V18.206V1.127C8.099,0.508,8.607,0,9.226,0c0.317,0,0.619,0.143,0.825,0.365l8.92,8.492
	l8.984,8.539c0.444,0.429,0.476,1.127,0.048,1.587C27.987,19,27.971,19,27.955,19.015L27.955,19.015z M17.432,25.936l8.142-7.73
	l-8.142-7.73L10.337,3.73v14.476v14.476L17.432,25.936z"/>
<g>
</g>
<g>
</g>
<g>
</g>
<g>
</g>
<g>
</g>
<g>
</g>
<g>
</g>
<g>
</g>
<g>
</g>
<g>
</g>
<g>
</g>
<g>
</g>
<g>
</g>
<g>
</g>
<g>
</g>
</svg>
